<svg width="32" height="32" viewBox="0 0 32 32" fill="none" xmlns="http://www.w3.org/2000/svg">
  <rect width="32" height="32" rx="16" fill="url(#gradient)"/>
  <path d="M16 8C12.686 8 10 10.686 10 14C10 17.314 12.686 20 16 20C19.314 20 22 17.314 22 14C22 10.686 19.314 8 16 8Z" fill="white"/>
  <path d="M16 10C13.791 10 12 11.791 12 14C12 16.209 13.791 18 16 18C18.209 18 20 16.209 20 14C20 11.791 18.209 10 16 10Z" fill="url(#innerGradient)"/>
  <path d="M8 20C8 21.105 8.895 22 10 22H22C23.105 22 24 21.105 24 20V18H8V20Z" fill="url(#baseGradient)"/>
  <defs>
    <linearGradient id="gradient" x1="0" y1="0" x2="32" y2="32" gradientUnits="userSpaceOnUse">
      <stop stop-color="#22C55E"/>
      <stop offset="1" stop-color="#3B82F6"/>
    </linearGradient>
    <linearGradient id="innerGradient" x1="12" y1="10" x2="20" y2="18" gradientUnits="userSpaceOnUse">
      <stop stop-color="#10B981"/>
      <stop offset="1" stop-color="#06B6D4"/>
    </linearGradient>
    <linearGradient id="baseGradient" x1="8" y1="18" x2="24" y2="22" gradientUnits="userSpaceOnUse">
      <stop stop-color="#16A34A"/>
      <stop offset="1" stop-color="#1E40AF"/>
    </linearGradient>
  </defs>
</svg>